<svg xmlns="http://www.w3.org/2000/svg" style="display: none;">
  <defs>

    <symbol id="icon-magnifying-glass" viewBox="0 0 16 16">
      <path fill-rule="evenodd" clip-rule="evenodd" d="M 10.6002 12.0498 C 9.49758 12.8568 8.13777 13.3333 6.66667 13.3333 C 2.98477 13.3333 0 10.3486 0 6.66667 C 0 2.98477 2.98477 0 6.66667 0 C 10.3486 0 13.3333 2.98477 13.3333 6.66667 C 13.3333 8.15637 12.8447 9.53194 12.019 10.6419 C 12.0265 10.6489 12.0338 10.656 12.0411 10.6633 L 15.2935 13.9157 C 15.6841 14.3063 15.6841 14.9394 15.2935 15.33 C 14.903 15.7205 14.2699 15.7205 13.8793 15.33 L 10.6269 12.0775 C 10.6178 12.0684 10.6089 12.0592 10.6002 12.0498 Z M 11.3333 6.66667 C 11.3333 9.244 9.244 11.3333 6.66667 11.3333 C 4.08934 11.3333 2 9.244 2 6.66667 C 2 4.08934 4.08934 2 6.66667 2 C 9.244 2 11.3333 4.08934 11.3333 6.66667 Z"/>
    </symbol>

    <symbol id="icon-bookmark" viewBox="0 0 20 20">
      <path d="M14 2v17l-4-4-4 4v-17c0-0.553 0.585-1.020 1-1h6c0.689-0.020 1 0.447 1 1z"></path>
    </symbol>

    <symbol id="icon-plus" viewBox="0 0 20 20">
      <path d="M16 10c0 0.553-0.048 1-0.601 1h-4.399v4.399c0 0.552-0.447 0.601-1 0.601s-1-0.049-1-0.601v-4.399h-4.399c-0.552 0-0.601-0.447-0.601-1s0.049-1 0.601-1h4.399v-4.399c0-0.553 0.447-0.601 1-0.601s1 0.048 1 0.601v4.399h4.399c0.553 0 0.601 0.447 0.601 1z"></path>
    </symbol>

    <symbol id="icon-check" viewBox="0 0 20 20">
      <path d="M8.294 16.998c-0.435 0-0.847-0.203-1.111-0.553l-3.573-4.721c-0.465-0.613-0.344-1.486 0.27-1.951 0.615-0.467 1.488-0.344 1.953 0.27l2.351 3.104 5.911-9.492c0.407-0.652 1.267-0.852 1.921-0.445s0.854 1.266 0.446 1.92l-6.984 11.21c-0.242 0.391-0.661 0.635-1.12 0.656-0.022 0.002-0.042 0.002-0.064 0.002z"></path>
    </symbol>

    <symbol id="icon-lock" viewBox="0 0 20 20">
      <path d="M15.8 8h-1.8v-2.4c0-2.897-1.335-4.6-4-4.6s-4 1.703-4 4.6v2.4h-2c-0.553 0-1 0.646-1 1.199v7.801c0 0.549 0.428 1.139 0.951 1.307l1.197 0.387c0.524 0.167 1.402 0.306 1.952 0.306h5.8c0.549 0 1.428-0.139 1.951-0.307l1.196-0.387c0.524-0.167 0.953-0.757 0.953-1.306v-7.801c0-0.553-0.648-1.199-1.2-1.199zM12 8h-4v-2.801c0-1.445 0.797-2.199 2-2.199s2 0.754 2 2.199v2.801z"></path>
    </symbol>
  </defs>
</svg>