<svg xmlns="http://www.w3.org/2000/svg" style="display: none;">
  <defs>

    <symbol id="icon-magnifying-glass" viewBox="0 0 16 16">
      <path fill-rule="evenodd" clip-rule="evenodd" d="M 10.6002 12.0498 C 9.49758 12.8568 8.13777 13.3333 6.66667 13.3333 C 2.98477 13.3333 0 10.3486 0 6.66667 C 0 2.98477 2.98477 0 6.66667 0 C 10.3486 0 13.3333 2.98477 13.3333 6.66667 C 13.3333 8.15637 12.8447 9.53194 12.019 10.6419 C 12.0265 10.6489 12.0338 10.656 12.0411 10.6633 L 15.2935 13.9157 C 15.6841 14.3063 15.6841 14.9394 15.2935 15.33 C 14.903 15.7205 14.2699 15.7205 13.8793 15.33 L 10.6269 12.0775 C 10.6178 12.0684 10.6089 12.0592 10.6002 12.0498 Z M 11.3333 6.66667 C 11.3333 9.244 9.244 11.3333 6.66667 11.3333 C 4.08934 11.3333 2 9.244 2 6.66667 C 2 4.08934 4.08934 2 6.66667 2 C 9.244 2 11.3333 4.08934 11.3333 6.66667 Z"/>
    </symbol>

    <symbol id="icon-bookmark" viewBox="0 0 20 20">
      <path d="M14 2v17l-4-4-4 4v-17c0-0.553 0.585-1.020 1-1h6c0.689-0.020 1 0.447 1 1z"></path>
    </symbol>

    <symbol id="icon-plus" viewBox="0 0 20 20">
      <path d="M16 10c0 0.553-0.048 1-0.601 1h-4.399v4.399c0 0.552-0.447 0.601-1 0.601s-1-0.049-1-0.601v-4.399h-4.399c-0.552 0-0.601-0.447-0.601-1s0.049-1 0.601-1h4.399v-4.399c0-0.553 0.447-0.601 1-0.601s1 0.048 1 0.601v4.399h4.399c0.553 0 0.601 0.447 0.601 1z"></path>
    </symbol>
  </defs>
</svg>